<svg version="1.1" xmlns="http://www.w3.org/2000/svg" xmlns:xlink="http://www.w3.org/1999/xlink" width="61" height="61" viewBox="0,0,61,61"><g transform="translate(-209.5,-149.5)"><g data-paper-data="{&quot;isPaintingLayer&quot;:true}" fill-rule="nonzero" stroke-linejoin="miter" stroke-miterlimit="10" stroke-dasharray="" stroke-dashoffset="0" style="mix-blend-mode: normal"><path d="M212,180c0,-15.46398 12.53602,-28 28,-28c15.46398,0 28,12.53602 28,28c0,15.46398 -12.53602,28 -28,28c-15.46398,0 -28,-12.53602 -28,-28z" fill="#ffad00" stroke="#ffad00" stroke-width="5" stroke-linecap="butt"/><path d="M216.5,170.75h46.83333" fill="none" stroke="#fff0d0" stroke-width="8" stroke-linecap="round"/><path d="M216.66666,189.25h46.83334" fill="none" stroke="#fff0d0" stroke-width="8" stroke-linecap="round"/><path d="M249.33333,156.66667c0,0 6,15.05634 6,22.83333c0,7.8881 -6,24.16667 -6,24.16667" fill="none" stroke="#fff0d0" stroke-width="8" stroke-linecap="round"/><path d="M230.5,156.33333c0,0 -5.83333,15.5851 -5.83333,23.33333c0,7.91488 5.83333,23.66667 5.83333,23.66667" fill="none" stroke="#fff0d0" stroke-width="8" stroke-linecap="round"/><path d="M227.83333,165.79908h25.66667" fill="none" stroke="#0082ff" stroke-width="8" stroke-linecap="round"/><path d="M247.81082,167.33333c0,0 0.5646,13.72728 0.80407,21.72577c0.15219,5.08335 -3.879,9.26341 -9.14908,9.10831c-7.47667,-0.22003 -9.75941,-8.345 -9.75941,-8.345" fill="none" stroke="#0082ff" stroke-width="8" stroke-linecap="round"/><path d="M212,180c0,-15.46397 12.53603,-28 28,-28c15.46397,0 28,12.53603 28,28c0,15.46397 -12.53603,28 -28,28c-15.46397,0 -28,-12.53603 -28,-28z" fill="none" stroke="#ffad00" stroke-width="5" stroke-linecap="butt"/></g></g></svg>